<svg version="1.1" id="Layer_1" xmlns="http://www.w3.org/2000/svg" xmlns:xlink="http://www.w3.org/1999/xlink" x="0px" y="0px"
	 width="100%" viewBox="0 0 1080 1080" enable-background="new 0 0 1080 1080" xml:space="preserve">
<path fill="#FFFFFF" opacity="1.000000" stroke="none" 
	d="
M598.000000,1081.000000 
	C398.689606,1081.000000 199.879227,1081.000000 1.034416,1081.000000 
	C1.034416,721.064514 1.034416,361.128967 1.034416,1.096730 
	C360.893951,1.096730 720.787903,1.096730 1080.840942,1.096730 
	C1080.840942,360.999939 1080.840942,720.999939 1080.840942,1081.000000 
	C920.128479,1081.000000 759.314270,1081.000000 598.000000,1081.000000 
M706.938049,394.036652 
	C706.765869,393.867706 706.593628,393.698761 706.477661,393.563019 
	C706.477661,393.563019 706.474243,393.527008 705.761719,392.965027 
	C705.350342,392.522583 704.938965,392.080139 704.520264,391.067078 
	C703.013916,389.697449 701.507507,388.327820 699.994202,387.005798 
	C699.994202,387.005798 700.041809,386.998688 699.953613,386.368500 
	C699.303894,385.898438 698.654175,385.428406 697.996094,385.004333 
	C697.996094,385.004333 698.041382,384.993195 697.906250,384.314301 
	C696.612976,383.526978 695.319763,382.739655 694.000000,382.000000 
	C694.000000,382.000000 694.044434,381.968018 694.205750,381.292358 
	C693.816895,381.181274 693.427979,381.070190 693.002991,381.000000 
	C693.002991,381.000000 693.044189,380.959686 693.304382,380.295563 
	C692.207886,379.516846 691.111389,378.738159 689.998108,378.000732 
	C689.998108,378.000732 690.038208,377.981445 689.797607,377.378204 
	C689.202271,377.236816 688.606934,377.095428 687.998779,377.001099 
	C687.998779,377.001099 688.041748,376.978180 688.002625,376.304504 
	C687.584778,376.187469 687.166870,376.070404 686.188660,375.619781 
	C683.879456,374.091125 681.570251,372.562439 679.483948,371.181335 
	C683.889404,363.308380 687.992798,355.975433 692.410950,348.491058 
	C692.592834,348.189056 692.623352,347.872070 692.811401,347.120483 
	C692.895264,346.968353 692.979126,346.816254 693.590881,346.325134 
	C694.466919,344.378357 695.607605,342.504669 696.169312,340.471069 
	C697.845581,334.402679 699.294861,328.271545 701.469482,321.677887 
	C702.930298,313.441315 704.391174,305.204742 706.048035,296.045288 
	C706.077698,287.656311 706.172119,279.266724 706.087524,270.878876 
	C706.068604,269.001953 705.422302,267.131348 705.082520,264.312866 
	C703.987671,257.760895 702.892761,251.208923 701.678711,243.988434 
	C699.435303,239.088074 697.491150,234.018112 694.843018,229.347229 
	C693.088013,226.251846 690.324646,223.728180 687.996460,221.002380 
	C687.996460,221.002380 688.052612,221.000824 688.380310,220.351730 
	C687.930237,219.887863 687.480164,219.423996 686.999268,218.998795 
	C686.999268,218.998795 687.044128,218.978531 686.996521,218.461716 
	C686.468994,217.850586 685.941467,217.239441 684.828491,216.144058 
	C675.278320,205.782761 663.725281,198.491486 650.448975,193.168396 
	C641.498413,188.643906 631.758118,187.818207 621.063110,187.005798 
	C539.466309,186.992615 457.869293,186.916336 376.273102,187.138031 
	C371.829559,187.150116 367.392792,189.650803 363.005951,191.008850 
	C363.005951,191.008850 363.012970,190.953888 362.297638,190.787537 
	C361.725494,191.206940 361.153320,191.626343 359.898346,192.029358 
	C352.407410,197.126938 346.638428,203.564041 343.328583,213.041885 
	C343.206482,214.206543 343.084351,215.371201 343.020233,216.508057 
	C343.020233,216.508057 342.996796,216.448181 342.263885,216.875839 
	C341.983643,218.980957 341.458954,221.085999 341.458191,223.191223 
	C341.418549,331.230225 341.419403,439.269257 341.451416,547.308289 
	C341.452118,549.610291 341.866760,551.912170 342.078796,554.946228 
	C345.095062,563.824036 349.262115,571.891663 358.002747,577.619202 
	C358.667480,577.760986 359.332214,577.902771 359.998871,577.996643 
	C359.998871,577.996643 359.960815,578.025818 360.069153,578.701843 
	C360.708313,578.816223 361.347473,578.930603 361.994598,578.996582 
	C361.994598,578.996582 361.958832,579.030273 361.897705,579.761536 
	C367.062500,581.190674 372.223877,583.851440 377.392639,583.865784 
	C467.942139,584.116577 558.492493,584.067261 649.042664,583.989807 
	C655.323059,583.984436 661.655090,583.610352 667.863525,582.716187 
	C671.686951,582.165405 675.321228,580.301086 679.004150,578.995300 
	C679.004150,578.995300 678.998596,579.042969 679.767334,579.190063 
	C680.936951,578.799622 682.106567,578.409119 683.980530,578.031982 
	C686.241089,576.737732 688.407776,575.231262 690.777466,574.183960 
	C705.097107,567.855286 715.996033,557.655090 724.013489,544.412231 
	C730.061707,534.421997 735.566284,524.127380 735.830200,511.944519 
	C735.854492,510.820618 737.036560,509.721863 737.310486,508.200195 
	C737.664795,500.478302 738.272583,492.757294 738.299622,485.034271 
	C738.324890,477.802307 737.735046,470.568237 737.242920,462.348175 
	C735.783447,455.491180 734.323975,448.634186 732.805054,441.060242 
	C729.292480,432.242493 726.050842,423.301971 722.137146,414.666016 
	C720.518250,411.093750 717.459290,408.174133 714.906555,404.273071 
	C714.827087,404.053467 714.747620,403.833862 714.655762,403.286926 
	C714.654175,402.939178 714.527893,402.651215 713.668030,401.975525 
	C711.583313,399.482605 709.498596,396.989685 707.486328,394.469269 
	C707.486328,394.469269 707.424683,394.572235 706.938049,394.036652 
z"/>
<path fill="#B1FBFA" opacity="1.000000" stroke="none" 
	d="
M650.506714,193.753311 
	C663.725281,198.491486 675.278320,205.782761 685.102661,216.660248 
	C685.932617,217.777145 686.488403,218.377838 687.044128,218.978531 
	C687.044128,218.978531 686.999268,218.998795 686.887329,219.294693 
	C687.201111,220.060669 687.626831,220.530746 688.052612,221.000824 
	C688.052612,221.000824 687.996460,221.002380 688.044922,221.322754 
	C691.992065,228.722610 695.867554,235.815140 699.823853,242.862259 
	C700.237000,243.597992 701.128418,244.065170 701.797913,244.656952 
	C702.892761,251.208923 703.987671,257.760895 705.076660,265.235962 
	C705.035339,274.911072 704.956970,283.663330 705.005127,292.414886 
	C705.013428,293.934143 705.556152,295.450470 705.851990,296.968170 
	C704.391174,305.204742 702.930298,313.441315 700.910034,322.166229 
	C697.921448,330.657745 695.492249,338.660919 693.062988,346.664124 
	C692.979126,346.816254 692.895264,346.968353 692.618652,347.453552 
	C692.313843,348.070587 692.203918,348.355896 692.096130,348.642456 
	C687.992798,355.975433 683.889404,363.308380 679.483948,371.181335 
	C681.570251,372.562439 683.879456,374.091125 686.568787,376.080872 
	C687.313171,376.687378 687.677490,376.832764 688.041748,376.978149 
	C688.041748,376.978180 687.998779,377.001099 688.110413,377.291931 
	C688.827454,377.715668 689.432800,377.848572 690.038208,377.981445 
	C690.038208,377.981445 689.998108,378.000732 689.948486,378.326660 
	C690.947327,379.421631 691.995728,380.190643 693.044189,380.959686 
	C693.044189,380.959686 693.002991,381.000000 693.053223,381.256348 
	C693.417053,381.664490 693.730774,381.816254 694.044434,381.968018 
	C694.044434,381.968018 694.000000,382.000000 694.091064,382.306396 
	C695.468567,383.406281 696.754944,384.199738 698.041382,384.993195 
	C698.041382,384.993195 697.996094,385.004333 697.980957,385.320312 
	C698.657837,386.090393 699.349854,386.544525 700.041809,386.998657 
	C700.041809,386.998688 699.994202,387.005798 699.993530,387.321045 
	C701.504395,388.970093 703.016052,390.303864 704.527649,391.637665 
	C704.938965,392.080139 705.350342,392.522583 706.093811,393.239380 
	C706.425903,393.513733 706.421448,393.529816 706.421448,393.529816 
	C706.593628,393.698761 706.765869,393.867706 707.165405,394.294861 
	C707.392761,394.553101 707.413818,394.496765 707.413818,394.496765 
	C709.498596,396.989685 711.583313,399.482605 713.974243,402.363159 
	C714.295227,403.091400 714.424500,403.379211 714.668213,403.614258 
	C714.747620,403.833862 714.827087,404.053467 715.027283,404.964478 
	C720.379150,417.103760 725.591614,428.560272 730.884277,439.979614 
	C731.229614,440.724701 732.190186,441.184601 732.864563,441.777161 
	C734.323975,448.634186 735.783447,455.491180 737.486084,463.141663 
	C737.713135,478.827271 737.697083,493.719360 737.681030,508.611450 
	C737.036560,509.721863 735.854492,510.820618 735.830200,511.944519 
	C735.566284,524.127380 730.061707,534.421997 724.013489,544.412231 
	C715.996033,557.655090 705.097107,567.855286 690.777466,574.183960 
	C688.407776,575.231262 686.241089,576.737732 683.231201,577.969849 
	C681.320740,578.286133 680.159668,578.664551 678.998596,579.042969 
	C678.998596,579.042969 679.004150,578.995300 678.613403,578.942993 
	C667.403137,580.214294 656.587646,582.645264 645.763245,582.686035 
	C561.463440,583.003662 477.161804,582.823853 392.860840,582.908325 
	C382.357239,582.918823 371.978668,582.572571 361.958832,579.030273 
	C361.958832,579.030273 361.994598,578.996582 361.856445,578.735352 
	C361.132446,578.324707 360.546631,578.175293 359.960815,578.025818 
	C359.960815,578.025818 359.998871,577.996643 359.832001,577.705933 
	C358.981537,577.281067 358.297974,577.146912 357.614410,577.012695 
	C349.262115,571.891663 345.095062,563.824036 342.459930,554.336304 
	C342.892120,550.080566 342.987457,546.434875 342.987732,542.789124 
	C342.995697,437.997437 342.994141,333.205750 342.994293,228.414062 
	C342.994293,224.425430 342.995941,220.436813 342.996796,216.448181 
	C342.996796,216.448181 343.020233,216.508057 343.366150,216.263290 
	C343.812958,214.828293 343.913818,213.638077 344.014679,212.447845 
	C346.638428,203.564041 352.407410,197.126938 360.616760,192.057709 
	C361.894440,191.708664 362.453705,191.331268 363.012970,190.953888 
	C363.012970,190.953888 363.005951,191.008850 363.379730,191.004822 
	C372.097198,190.013870 380.438354,188.194702 388.784943,188.169617 
	C466.522461,187.935837 544.260925,188.010345 622.410461,188.046448 
	C632.050110,189.982697 641.278442,191.867996 650.506714,193.753311 
M498.499969,349.241241 
	C525.157349,349.185059 551.840149,349.824036 578.463928,348.849274 
	C599.186584,348.090515 615.861206,338.779572 625.981628,319.832489 
	C634.479126,303.923523 633.715454,286.703827 632.288818,269.562195 
	C631.813293,263.849304 627.530762,260.554352 621.785950,259.861298 
	C619.148804,259.543152 616.466919,259.494598 613.805359,259.493805 
	C549.157959,259.474915 484.510529,259.478973 419.863098,259.478943 
	C418.072052,259.478943 416.281006,259.478973 414.365295,259.478973 
	C414.365295,343.622589 414.365295,427.172791 414.365295,511.167633 
	C416.615204,511.167633 418.578094,511.167633 420.540985,511.167633 
	C495.685272,511.167603 570.829590,511.168030 645.973877,511.165314 
	C648.139709,511.165222 650.307068,511.177765 652.471069,511.105438 
	C660.368591,510.841492 664.757751,507.264435 665.168640,499.338867 
	C665.632996,490.383179 665.895203,481.288483 664.875916,472.411469 
	C662.816101,454.472595 654.522217,439.854156 638.816406,430.212097 
	C627.703003,423.389435 615.309570,421.345581 602.432922,421.356567 
	C551.281494,421.400208 500.130066,421.373810 448.978638,421.373413 
	C447.053101,421.373413 445.127563,421.373444 443.221375,421.373444 
	C443.221375,397.001038 443.221375,373.290894 443.221375,349.241333 
	C461.562347,349.241333 479.531158,349.241333 498.499969,349.241241 
z"/>
<path fill="#63909B" opacity="1.000000" stroke="none" 
	d="
M342.630341,216.662018 
	C342.995941,220.436813 342.994293,224.425430 342.994293,228.414062 
	C342.994141,333.205750 342.995697,437.997437 342.987732,542.789124 
	C342.987457,546.434875 342.892120,550.080566 342.464661,553.970215 
	C341.866760,551.912170 341.452118,549.610291 341.451416,547.308289 
	C341.419403,439.269257 341.418549,331.230225 341.458191,223.191223 
	C341.458954,221.085999 341.983643,218.980957 342.630341,216.662018 
z"/>
<path fill="#94A5AE" opacity="1.000000" stroke="none" 
	d="
M361.928284,579.395874 
	C371.978668,582.572571 382.357239,582.918823 392.860840,582.908325 
	C477.161804,582.823853 561.463440,583.003662 645.763245,582.686035 
	C656.587646,582.645264 667.403137,580.214294 678.631592,578.958618 
	C675.321228,580.301086 671.686951,582.165405 667.863525,582.716187 
	C661.655090,583.610352 655.323059,583.984436 649.042664,583.989807 
	C558.492493,584.067261 467.942139,584.116577 377.392639,583.865784 
	C372.223877,583.851440 367.062500,581.190674 361.928284,579.395874 
z"/>
<path fill="#8199A3" opacity="1.000000" stroke="none" 
	d="
M621.999084,187.995499 
	C544.260925,188.010345 466.522461,187.935837 388.784943,188.169617 
	C380.438354,188.194702 372.097198,190.013870 363.353180,190.996933 
	C367.392792,189.650803 371.829559,187.150116 376.273102,187.138031 
	C457.869293,186.916336 539.466309,186.992615 621.534302,187.275024 
	C622.005432,187.544235 621.999084,187.995499 621.999084,187.995499 
z"/>
<path fill="#86A4AE" opacity="1.000000" stroke="none" 
	d="
M732.834839,441.418701 
	C732.190186,441.184601 731.229614,440.724701 730.884277,439.979614 
	C725.591614,428.560272 720.379150,417.103760 715.101624,405.306824 
	C717.459290,408.174133 720.518250,411.093750 722.137146,414.666016 
	C726.050842,423.301971 729.292480,432.242493 732.834839,441.418701 
z"/>
<path fill="#4E7180" opacity="1.000000" stroke="none" 
	d="
M737.495728,508.405823 
	C737.697083,493.719360 737.713135,478.827271 737.572510,463.635132 
	C737.735046,470.568237 738.324890,477.802307 738.299622,485.034271 
	C738.272583,492.757294 737.664795,500.478302 737.495728,508.405823 
z"/>
<path fill="#8199A3" opacity="1.000000" stroke="none" 
	d="
M701.738281,244.322693 
	C701.128418,244.065170 700.237000,243.597992 699.823853,242.862259 
	C695.867554,235.815140 691.992065,228.722610 688.053101,221.295837 
	C690.324646,223.728180 693.088013,226.251846 694.843018,229.347229 
	C697.491150,234.018112 699.435303,239.088074 701.738281,244.322693 
z"/>
<path fill="#86A4AE" opacity="1.000000" stroke="none" 
	d="
M622.410461,188.046448 
	C621.999084,187.995499 622.005432,187.544235 622.000854,187.318695 
	C631.758118,187.818207 641.498413,188.643906 650.477844,193.460846 
	C641.278442,191.867996 632.050110,189.982697 622.410461,188.046448 
z"/>
<path fill="#86A4AE" opacity="1.000000" stroke="none" 
	d="
M693.326904,346.494629 
	C695.492249,338.660919 697.921448,330.657745 700.591675,322.409729 
	C699.294861,328.271545 697.845581,334.402679 696.169312,340.471069 
	C695.607605,342.504669 694.466919,344.378357 693.326904,346.494629 
z"/>
<path fill="#1F3F53" opacity="1.000000" stroke="none" 
	d="
M705.950012,296.506714 
	C705.556152,295.450470 705.013428,293.934143 705.005127,292.414886 
	C704.956970,283.663330 705.035339,274.911072 705.067810,265.708435 
	C705.422302,267.131348 706.068604,269.001953 706.087524,270.878876 
	C706.172119,279.266724 706.077698,287.656311 705.950012,296.506714 
z"/>
<path fill="#86A4AE" opacity="1.000000" stroke="none" 
	d="
M704.523926,391.352356 
	C703.016052,390.303864 701.504395,388.970093 699.996948,387.297241 
	C701.507507,388.327820 703.013916,389.697449 704.523926,391.352356 
z"/>
<path fill="#86A4AE" opacity="1.000000" stroke="none" 
	d="
M697.973816,384.653748 
	C696.754944,384.199738 695.468567,383.406281 694.104309,382.282562 
	C695.319763,382.739655 696.612976,383.526978 697.973816,384.653748 
z"/>
<path fill="#86A4AE" opacity="1.000000" stroke="none" 
	d="
M693.174316,380.627625 
	C691.995728,380.190643 690.947327,379.421631 689.956909,378.306030 
	C691.111389,378.738159 692.207886,379.516846 693.174316,380.627625 
z"/>
<path fill="#8199A3" opacity="1.000000" stroke="none" 
	d="
M687.020325,218.720123 
	C686.488403,218.377838 685.932617,217.777145 685.395386,216.902374 
	C685.941467,217.239441 686.468994,217.850586 687.020325,218.720123 
z"/>
<path fill="#86A4AE" opacity="1.000000" stroke="none" 
	d="
M699.997681,386.683594 
	C699.349854,386.544525 698.657837,386.090393 697.985107,385.297302 
	C698.654175,385.428406 699.303894,385.898438 699.997681,386.683594 
z"/>
<path fill="#94A5AE" opacity="1.000000" stroke="none" 
	d="
M679.382935,579.116516 
	C680.159668,578.664551 681.320740,578.286133 682.879028,577.963135 
	C682.106567,578.409119 680.936951,578.799622 679.382935,579.116516 
z"/>
<path fill="#63909B" opacity="1.000000" stroke="none" 
	d="
M343.671631,212.744873 
	C343.913818,213.638077 343.812958,214.828293 343.337158,216.277191 
	C343.084351,215.371201 343.206482,214.206543 343.671631,212.744873 
z"/>
<path fill="#86A4AE" opacity="1.000000" stroke="none" 
	d="
M689.917908,377.679810 
	C689.432800,377.848572 688.827454,377.715668 688.116821,377.268402 
	C688.606934,377.095428 689.202271,377.236816 689.917908,377.679810 
z"/>
<path fill="#86A4AE" opacity="1.000000" stroke="none" 
	d="
M692.253540,348.566772 
	C692.203918,348.355896 692.313843,348.070587 692.464111,347.663361 
	C692.623352,347.872070 692.592834,348.189056 692.253540,348.566772 
z"/>
<path fill="#86A4AE" opacity="1.000000" stroke="none" 
	d="
M714.661987,403.450592 
	C714.424500,403.379211 714.295227,403.091400 714.278687,402.586914 
	C714.527893,402.651215 714.654175,402.939178 714.661987,403.450592 
z"/>
<path fill="#8199A3" opacity="1.000000" stroke="none" 
	d="
M688.216431,220.676270 
	C687.626831,220.530746 687.201111,220.060669 686.902710,219.275360 
	C687.480164,219.423996 687.930237,219.887863 688.216431,220.676270 
z"/>
<path fill="#8199A3" opacity="1.000000" stroke="none" 
	d="
M362.655304,190.870712 
	C362.453705,191.331268 361.894440,191.708664 360.958160,192.065903 
	C361.153320,191.626343 361.725494,191.206940 362.655304,190.870712 
z"/>
<path fill="#94A5AE" opacity="1.000000" stroke="none" 
	d="
M357.808594,577.315918 
	C358.297974,577.146912 358.981537,577.281067 359.831055,577.729858 
	C359.332214,577.902771 358.667480,577.760986 357.808594,577.315918 
z"/>
<path fill="#94A5AE" opacity="1.000000" stroke="none" 
	d="
M360.014984,578.363831 
	C360.546631,578.175293 361.132446,578.324707 361.852448,578.759521 
	C361.347473,578.930603 360.708313,578.816223 360.014984,578.363831 
z"/>
<path fill="#86A4AE" opacity="1.000000" stroke="none" 
	d="
M694.125122,381.630188 
	C693.730774,381.816254 693.417053,381.664490 693.071289,381.235901 
	C693.427979,381.070190 693.816895,381.181274 694.125122,381.630188 
z"/>
<path fill="#86A4AE" opacity="1.000000" stroke="none" 
	d="
M688.022217,376.641327 
	C687.677490,376.832764 687.313171,376.687378 686.848999,376.247681 
	C687.166870,376.070404 687.584778,376.187469 688.022217,376.641327 
z"/>
<path fill="#86A4AE" opacity="1.000000" stroke="none" 
	d="
M706.449585,393.546417 
	C706.421448,393.529816 706.425903,393.513733 706.450073,393.520386 
	C706.474243,393.527008 706.477661,393.563019 706.449585,393.546417 
z"/>
<path fill="#86A4AE" opacity="1.000000" stroke="none" 
	d="
M707.450073,394.483032 
	C707.413818,394.496765 707.392761,394.553101 707.408691,394.562683 
	C707.424683,394.572235 707.486328,394.469269 707.450073,394.483032 
z"/>
<path fill="#112F45" opacity="1.000000" stroke="none" 
	d="
M497.999939,349.241272 
	C479.531158,349.241333 461.562347,349.241333 443.221375,349.241333 
	C443.221375,373.290894 443.221375,397.001038 443.221375,421.373444 
	C445.127563,421.373444 447.053101,421.373413 448.978638,421.373413 
	C500.130066,421.373810 551.281494,421.400208 602.432922,421.356567 
	C615.309570,421.345581 627.703003,423.389435 638.816406,430.212097 
	C654.522217,439.854156 662.816101,454.472595 664.875916,472.411469 
	C665.895203,481.288483 665.632996,490.383179 665.168640,499.338867 
	C664.757751,507.264435 660.368591,510.841492 652.471069,511.105438 
	C650.307068,511.177765 648.139709,511.165222 645.973877,511.165314 
	C570.829590,511.168030 495.685272,511.167603 420.540985,511.167633 
	C418.578094,511.167633 416.615204,511.167633 414.365295,511.167633 
	C414.365295,427.172791 414.365295,343.622589 414.365295,259.478973 
	C416.281006,259.478973 418.072052,259.478943 419.863098,259.478943 
	C484.510529,259.478973 549.157959,259.474915 613.805359,259.493805 
	C616.466919,259.494598 619.148804,259.543152 621.785950,259.861298 
	C627.530762,260.554352 631.813293,263.849304 632.288818,269.562195 
	C633.715454,286.703827 634.479126,303.923523 625.981628,319.832489 
	C615.861206,338.779572 599.186584,348.090515 578.463928,348.849274 
	C551.840149,349.824036 525.157349,349.185059 497.999939,349.241272 
z"/>
</svg>