<svg version="1.1" id="Layer_1" xmlns="http://www.w3.org/2000/svg" xmlns:xlink="http://www.w3.org/1999/xlink" x="0px" y="0px"
	 width="100%" viewBox="0 0 2000 1500" enable-background="new 0 0 2000 1500" xml:space="preserve">
<path fill="#102E44" opacity="1.000000" stroke="none" 
	d="
M1052.000000,1501.000000 
	C701.333435,1501.000000 351.166870,1501.000000 1.000235,1501.000000 
	C1.000157,1001.000244 1.000157,501.000519 1.000078,1.000570 
	C667.666199,1.000380 1334.332397,1.000380 2000.999023,1.000190 
	C2000.999268,500.999390 2000.999268,1000.998779 2000.999634,1500.999023 
	C1684.833374,1501.000000 1368.666626,1501.000000 1052.000000,1501.000000 
M1228.950562,374.605988 
	C1228.102051,356.616241 1224.859497,339.188538 1215.898560,323.312286 
	C1191.918579,280.827087 1154.217041,261.204529 1106.661133,260.941864 
	C997.007751,260.336151 887.348816,260.724030 777.692139,260.829681 
	C772.251831,260.834900 766.637329,261.325867 761.403320,262.717102 
	C739.085571,268.649292 725.442444,288.084564 725.436951,313.608124 
	C725.405212,461.261353 725.412598,608.914612 725.466553,756.567810 
	C725.468079,760.878113 725.684814,765.281738 726.562195,769.482910 
	C731.617676,793.690430 750.927917,808.970703 776.553589,808.979919 
	C902.208801,809.025208 1027.864136,809.051147 1153.519165,808.893799 
	C1162.631958,808.882385 1171.969727,808.363770 1180.817139,806.369507 
	C1229.196289,795.463928 1258.682739,764.889099 1269.770874,717.104492 
	C1276.477295,688.202881 1274.952271,658.708008 1269.782837,629.710754 
	C1263.240845,593.014709 1247.145142,560.923767 1219.213989,535.570862 
	C1210.776001,527.911621 1201.523315,521.149902 1192.490112,513.852966 
	C1203.241455,498.604462 1211.954102,481.878357 1218.152588,463.791687 
	C1227.979614,435.116791 1230.118774,405.566925 1228.950562,374.605988 
M664.512390,1055.022827 
	C682.098938,1040.318237 682.870178,1015.788391 674.972412,1000.337891 
	C668.197815,987.084473 656.622498,979.620178 642.954773,974.970215 
	C630.839233,970.848328 618.253662,969.302795 605.566528,969.509216 
	C585.164673,969.841003 564.772522,970.768616 544.403748,971.443542 
	C544.403748,1039.139404 544.403748,1105.524292 544.403748,1172.243042 
	C570.771912,1174.433960 596.863525,1176.593384 622.999817,1173.742554 
	C639.416748,1171.952271 654.721069,1167.004395 667.932556,1156.302368 
	C691.514832,1137.199707 696.146057,1090.822632 659.879272,1072.058960 
	C655.968933,1070.035889 651.941040,1068.239990 647.968872,1066.339355 
	C653.347839,1062.698853 658.666016,1059.099365 664.512390,1055.022827 
M1025.145142,1169.375122 
	C1048.581177,1176.838867 1069.244141,1172.143188 1086.910889,1154.322021 
	C1086.910889,1163.894531 1087.500732,1172.595825 1086.792236,1181.190186 
	C1085.152710,1201.079346 1072.957031,1213.428101 1053.288452,1216.173950 
	C1035.865234,1218.606323 1019.853577,1215.261230 1005.315308,1204.337891 
	C1002.091309,1211.944580 999.007446,1219.220459 995.893677,1226.567139 
	C997.194885,1227.394165 998.144531,1228.048950 999.142334,1228.619385 
	C1000.440247,1229.361084 1001.747681,1230.097412 1003.100769,1230.729614 
	C1020.204773,1238.719971 1038.241455,1240.531250 1056.764526,1238.477173 
	C1068.150391,1237.214478 1078.971802,1233.965454 1088.330933,1227.080566 
	C1104.334473,1215.307739 1111.496826,1198.485352 1111.772217,1179.499756 
	C1112.518921,1128.013794 1112.199951,1076.512573 1112.280762,1025.017334 
	C1112.281494,1024.561035 1111.970825,1024.104126 1111.772217,1023.555542 
	C1104.294189,1023.555542 1096.856323,1023.555542 1088.864746,1023.555542 
	C1088.864746,1027.123047 1088.864746,1030.485107 1088.864746,1034.515381 
	C1087.497803,1033.637329 1086.822510,1033.242920 1086.188232,1032.790771 
	C1057.706421,1012.482666 1021.487244,1016.558167 998.431152,1042.813354 
	C982.389954,1061.080200 977.108765,1082.852051 979.300842,1106.471680 
	C982.039062,1135.976440 995.712158,1158.067139 1025.145142,1169.375122 
M838.318237,1031.796509 
	C823.088318,1041.906494 813.394470,1055.929688 808.769348,1073.549438 
	C805.381592,1086.455200 804.887329,1099.523438 806.906738,1112.653076 
	C816.450256,1174.703125 881.646057,1190.023804 920.804260,1164.611084 
	C945.395325,1148.652100 954.591003,1124.578369 954.387329,1096.170166 
	C954.224792,1073.502563 947.219727,1053.594604 930.028076,1038.195557 
	C905.737244,1016.437683 869.114685,1013.838013 838.318237,1031.796509 
M1414.235229,1143.874390 
	C1428.090210,1106.065186 1441.945068,1068.256104 1455.875366,1030.241455 
	C1447.589233,1027.073364 1439.924927,1024.143066 1431.997803,1021.112366 
	C1417.542847,1062.161987 1403.270874,1102.692017 1388.651367,1144.208862 
	C1369.824341,1102.210205 1351.435425,1061.189209 1332.945190,1019.941833 
	C1325.038086,1023.525085 1317.556274,1026.915527 1309.983276,1030.347290 
	C1328.003540,1070.868896 1346.028442,1110.843750 1363.452515,1151.078735 
	C1366.721558,1158.627319 1370.036499,1163.631958 1379.027710,1161.615234 
	C1379.718628,1161.460327 1380.528809,1161.837036 1381.778564,1162.051880 
	C1376.182983,1176.283691 1371.968140,1190.687744 1363.033081,1202.960571 
	C1357.705200,1210.278564 1350.561157,1214.762451 1341.608643,1216.395386 
	C1332.621582,1218.034668 1324.203003,1215.901001 1315.661011,1212.301758 
	C1313.706299,1219.667969 1311.854980,1226.644165 1310.035034,1233.502563 
	C1330.891846,1244.770020 1361.929077,1239.942261 1377.490723,1222.035645 
	C1384.573608,1213.885376 1390.510254,1204.253052 1394.925171,1194.380127 
	C1402.166138,1178.187622 1407.742065,1161.250610 1414.235229,1143.874390 
M1295.373291,1028.920044 
	C1282.799438,1028.920044 1270.225708,1028.920044 1257.748901,1028.920044 
	C1257.748901,1020.355286 1257.253662,1012.504089 1257.851440,1004.737061 
	C1259.121338,988.238770 1269.149414,978.872498 1285.514893,980.145325 
	C1294.545898,980.847595 1303.367065,984.248474 1312.787598,986.556458 
	C1314.911011,980.556824 1317.421997,973.461487 1320.353760,965.177490 
	C1310.946167,962.482178 1302.211060,958.919800 1293.149658,957.601990 
	C1273.703491,954.773865 1255.892090,958.450317 1242.787476,974.806091 
	C1234.014648,985.755249 1231.581543,998.680847 1231.633179,1012.305054 
	C1231.653809,1017.729858 1231.636597,1023.154785 1231.636597,1028.905518 
	C1223.683594,1028.905518 1216.388062,1028.905518 1209.013428,1028.905518 
	C1209.013428,1036.470093 1209.013428,1043.691528 1209.013428,1051.329468 
	C1216.624634,1051.329468 1223.903320,1051.329468 1231.680908,1051.329468 
	C1231.680908,1092.004639 1231.680908,1132.259644 1231.680908,1172.549316 
	C1240.448242,1172.549316 1248.695679,1172.549316 1257.504639,1172.549316 
	C1257.504639,1132.057129 1257.504639,1091.832397 1257.504639,1051.109131 
	C1272.472534,1051.109131 1286.884277,1051.109131 1301.467041,1051.109131 
	C1301.467041,1043.524170 1301.467041,1036.445557 1301.467041,1028.920044 
	C1299.594971,1028.920044 1297.965210,1028.920044 1295.373291,1028.920044 
M746.652893,983.500244 
	C746.652893,975.763184 746.652893,968.026184 746.652893,960.443542 
	C737.541504,960.443542 729.310364,960.443542 720.810974,960.443542 
	C720.810974,962.591736 720.810974,964.411560 720.810974,966.231384 
	C720.810974,1007.888977 720.795776,1049.546631 720.819458,1091.204224 
	C720.827332,1105.033569 720.566284,1118.877197 721.102173,1132.688232 
	C721.623657,1146.127686 726.099304,1158.083984 736.954407,1166.922241 
	C752.516479,1179.593140 782.807190,1177.805542 797.000732,1169.833862 
	C794.936768,1163.157471 792.857483,1156.431763 790.918274,1150.158936 
	C784.884094,1151.424316 779.579529,1152.957764 774.169739,1153.588379 
	C760.460083,1155.186890 750.721680,1148.270020 747.912903,1134.850586 
	C746.900757,1130.014648 746.713989,1124.938354 746.704407,1119.970703 
	C746.617432,1074.814087 746.653137,1029.657104 746.652893,983.500244 
M1156.950439,1074.500000 
	C1156.950439,1107.117676 1156.950439,1139.735229 1156.950439,1172.467163 
	C1165.800415,1172.467163 1174.176147,1172.467163 1182.588867,1172.467163 
	C1182.588867,1122.688110 1182.588867,1073.268555 1182.588867,1023.677612 
	C1173.940063,1023.677612 1165.561768,1023.677612 1156.950439,1023.677612 
	C1156.950439,1040.520020 1156.950439,1057.010010 1156.950439,1074.500000 
M1176.401489,962.889160 
	C1174.123779,962.510010 1171.848633,961.822937 1169.567871,961.804077 
	C1158.629883,961.713562 1151.832520,968.597778 1151.838501,979.541870 
	C1151.844116,989.729187 1160.119751,997.981323 1170.229248,997.880432 
	C1180.746460,997.775391 1188.080200,990.329224 1187.929443,979.745605 
	C1187.818970,971.991943 1183.900757,966.600220 1176.401489,962.889160 
z"/>
<path fill="#B2FCFB" opacity="1.000000" stroke="none" 
	d="
M1228.954346,375.093353 
	C1230.118774,405.566925 1227.979614,435.116791 1218.152588,463.791687 
	C1211.954102,481.878357 1203.241455,498.604462 1192.490112,513.852966 
	C1201.523315,521.149902 1210.776001,527.911621 1219.213989,535.570862 
	C1247.145142,560.923767 1263.240845,593.014709 1269.782837,629.710754 
	C1274.952271,658.708008 1276.477295,688.202881 1269.770874,717.104492 
	C1258.682739,764.889099 1229.196289,795.463928 1180.817139,806.369507 
	C1171.969727,808.363770 1162.631958,808.882385 1153.519165,808.893799 
	C1027.864136,809.051147 902.208801,809.025208 776.553589,808.979919 
	C750.927917,808.970703 731.617676,793.690430 726.562195,769.482910 
	C725.684814,765.281738 725.468079,760.878113 725.466553,756.567810 
	C725.412598,608.914612 725.405212,461.261353 725.436951,313.608124 
	C725.442444,288.084564 739.085571,268.649292 761.403320,262.717102 
	C766.637329,261.325867 772.251831,260.834900 777.692139,260.829681 
	C887.348816,260.724030 997.007751,260.336151 1106.661133,260.941864 
	C1154.217041,261.204529 1191.918579,280.827087 1215.898560,323.312286 
	C1224.859497,339.188538 1228.102051,356.616241 1228.954346,375.093353 
M1128.930664,388.519775 
	C1128.920410,385.853729 1128.968994,383.185974 1128.889771,380.521973 
	C1128.487183,366.965118 1121.859619,360.366547 1108.387695,360.070038 
	C1107.055054,360.040710 1105.721802,360.036591 1104.388794,360.036560 
	C1013.070007,360.035095 921.751160,360.035217 830.432373,360.035217 
	C828.671326,360.035217 826.910278,360.035248 825.300415,360.035248 
	C825.300415,476.919678 825.300415,593.130249 825.300415,709.668823 
	C827.147461,709.668823 828.624207,709.668823 830.100952,709.668823 
	C936.750671,709.668579 1043.400391,709.669495 1150.050049,709.659729 
	C1152.047607,709.659546 1154.052368,709.618469 1156.041748,709.452942 
	C1167.881836,708.467834 1173.561279,703.029297 1173.792969,691.000244 
	C1174.026611,678.863586 1174.349243,666.572327 1172.789185,654.588806 
	C1169.044556,625.821777 1154.384521,604.317871 1127.375610,592.293152 
	C1114.545654,586.581055 1100.889648,584.914917 1086.912598,584.929260 
	C1014.924072,585.003052 942.935486,584.963440 870.946899,584.963440 
	C868.998596,584.963440 867.050293,584.963440 865.039795,584.963440 
	C865.039795,551.338257 865.039795,518.274170 865.039795,484.819366 
	C867.301636,484.819366 869.267395,484.819366 871.233154,484.819366 
	C926.557678,484.819366 981.882324,484.846680 1037.206787,484.783600 
	C1043.861328,484.776001 1050.533813,484.505157 1057.166748,483.970001 
	C1090.162720,481.307617 1116.093750,459.927368 1125.231812,428.147034 
	C1128.873779,415.480865 1129.093750,402.524506 1128.930664,388.519775 
z"/>
<path fill="#FCFDFD" opacity="1.000000" stroke="none" 
	d="
M664.248291,1055.261353 
	C658.666016,1059.099365 653.347839,1062.698853 647.968872,1066.339355 
	C651.941040,1068.239990 655.968933,1070.035889 659.879272,1072.058960 
	C696.146057,1090.822632 691.514832,1137.199707 667.932556,1156.302368 
	C654.721069,1167.004395 639.416748,1171.952271 622.999817,1173.742554 
	C596.863525,1176.593384 570.771912,1174.433960 544.403748,1172.243042 
	C544.403748,1105.524292 544.403748,1039.139404 544.403748,971.443542 
	C564.772522,970.768616 585.164673,969.841003 605.566528,969.509216 
	C618.253662,969.302795 630.839233,970.848328 642.954773,974.970215 
	C656.622498,979.620178 668.197815,987.084473 674.972412,1000.337891 
	C682.870178,1015.788391 682.098938,1040.318237 664.248291,1055.261353 
M637.643860,1085.741943 
	C633.874329,1084.478271 630.163086,1082.362061 626.325134,1082.099731 
	C610.411560,1081.012207 594.460266,1080.472290 578.521301,1079.765259 
	C576.266052,1079.665161 574.002563,1079.751343 571.809692,1079.751343 
	C571.809692,1103.815430 571.809692,1127.190063 571.809692,1151.889771 
	C586.547485,1151.889771 600.911926,1152.710327 615.122620,1151.587036 
	C623.869568,1150.895630 632.681213,1147.984863 640.914734,1144.695923 
	C649.053711,1141.444702 654.566162,1134.848999 657.070923,1126.103271 
	C661.856262,1109.394531 655.008789,1094.667358 637.643860,1085.741943 
M643.342834,1003.138123 
	C637.625488,1000.192871 632.202026,996.197510 626.135559,994.500000 
	C608.195862,989.480042 589.911011,991.807434 571.619141,993.009644 
	C571.619141,1014.956726 571.619141,1036.381104 571.619141,1058.823242 
	C586.974548,1058.288940 602.078186,1058.101074 617.128845,1057.109985 
	C625.878113,1056.534058 633.916199,1053.091309 640.845581,1047.527954 
	C655.207825,1035.997314 656.485413,1017.089478 643.342834,1003.138123 
z"/>
<path fill="#FDFDFD" opacity="1.000000" stroke="none" 
	d="
M1024.772827,1169.245117 
	C995.712158,1158.067139 982.039062,1135.976440 979.300842,1106.471680 
	C977.108765,1082.852051 982.389954,1061.080200 998.431152,1042.813354 
	C1021.487244,1016.558167 1057.706421,1012.482666 1086.188232,1032.790771 
	C1086.822510,1033.242920 1087.497803,1033.637329 1088.864746,1034.515381 
	C1088.864746,1030.485107 1088.864746,1027.123047 1088.864746,1023.555542 
	C1096.856323,1023.555542 1104.294189,1023.555542 1111.772217,1023.555542 
	C1111.970825,1024.104126 1112.281494,1024.561035 1112.280762,1025.017334 
	C1112.199951,1076.512573 1112.518921,1128.013794 1111.772217,1179.499756 
	C1111.496826,1198.485352 1104.334473,1215.307739 1088.330933,1227.080566 
	C1078.971802,1233.965454 1068.150391,1237.214478 1056.764526,1238.477173 
	C1038.241455,1240.531250 1020.204773,1238.719971 1003.100769,1230.729614 
	C1001.747681,1230.097412 1000.440247,1229.361084 999.142334,1228.619385 
	C998.144531,1228.048950 997.194885,1227.394165 995.893677,1226.567139 
	C999.007446,1219.220459 1002.091309,1211.944580 1005.315308,1204.337891 
	C1019.853577,1215.261230 1035.865234,1218.606323 1053.288452,1216.173950 
	C1072.957031,1213.428101 1085.152710,1201.079346 1086.792236,1181.190186 
	C1087.500732,1172.595825 1086.910889,1163.894531 1086.910889,1154.322021 
	C1069.244141,1172.143188 1048.581177,1176.838867 1024.772827,1169.245117 
M1079.489868,1049.974731 
	C1077.098022,1048.819214 1074.750854,1047.557861 1072.307373,1046.524292 
	C1043.952271,1034.530518 1014.938599,1048.670532 1007.379639,1078.284668 
	C1004.536987,1089.421387 1004.230225,1100.765991 1007.117981,1111.906982 
	C1011.608215,1129.230713 1021.463135,1142.374512 1039.070190,1147.861084 
	C1055.920410,1153.111938 1070.440796,1147.727661 1083.140503,1136.192871 
	C1085.670044,1133.895264 1086.706177,1131.403931 1086.683350,1127.926025 
	C1086.537842,1105.777954 1086.355591,1083.623413 1086.782715,1061.482544 
	C1086.893066,1055.760986 1085.161621,1052.377197 1079.489868,1049.974731 
z"/>
<path fill="#FDFDFD" opacity="1.000000" stroke="none" 
	d="
M838.613037,1031.581543 
	C869.114685,1013.838013 905.737244,1016.437683 930.028076,1038.195557 
	C947.219727,1053.594604 954.224792,1073.502563 954.387329,1096.170166 
	C954.591003,1124.578369 945.395325,1148.652100 920.804260,1164.611084 
	C881.646057,1190.023804 816.450256,1174.703125 806.906738,1112.653076 
	C804.887329,1099.523438 805.381592,1086.455200 808.769348,1073.549438 
	C813.394470,1055.929688 823.088318,1041.906494 838.613037,1031.581543 
M908.211975,1053.260254 
	C889.909912,1036.699829 856.553223,1040.735474 842.545776,1060.620972 
	C826.091125,1083.980835 829.450623,1121.977417 850.378540,1141.335083 
	C870.645752,1160.081665 903.397095,1156.388306 918.473450,1133.655762 
	C931.711365,1113.695190 933.876160,1075.644897 908.211975,1053.260254 
z"/>
<path fill="#FCFDFD" opacity="1.000000" stroke="none" 
	d="
M1414.127686,1144.250977 
	C1407.742065,1161.250610 1402.166138,1178.187622 1394.925171,1194.380127 
	C1390.510254,1204.253052 1384.573608,1213.885376 1377.490723,1222.035645 
	C1361.929077,1239.942261 1330.891846,1244.770020 1310.035034,1233.502563 
	C1311.854980,1226.644165 1313.706299,1219.667969 1315.661011,1212.301758 
	C1324.203003,1215.901001 1332.621582,1218.034668 1341.608643,1216.395386 
	C1350.561157,1214.762451 1357.705200,1210.278564 1363.033081,1202.960571 
	C1371.968140,1190.687744 1376.182983,1176.283691 1381.778564,1162.051880 
	C1380.528809,1161.837036 1379.718628,1161.460327 1379.027710,1161.615234 
	C1370.036499,1163.631958 1366.721558,1158.627319 1363.452515,1151.078735 
	C1346.028442,1110.843750 1328.003540,1070.868896 1309.983276,1030.347290 
	C1317.556274,1026.915527 1325.038086,1023.525085 1332.945190,1019.941833 
	C1351.435425,1061.189209 1369.824341,1102.210205 1388.651367,1144.208862 
	C1403.270874,1102.692017 1417.542847,1062.161987 1431.997803,1021.112366 
	C1439.924927,1024.143066 1447.589233,1027.073364 1455.875366,1030.241455 
	C1441.945068,1068.256104 1428.090210,1106.065186 1414.127686,1144.250977 
z"/>
<path fill="#FEFEFE" opacity="1.000000" stroke="none" 
	d="
M1295.854370,1028.920044 
	C1297.965210,1028.920044 1299.594971,1028.920044 1301.467041,1028.920044 
	C1301.467041,1036.445557 1301.467041,1043.524170 1301.467041,1051.109131 
	C1286.884277,1051.109131 1272.472534,1051.109131 1257.504639,1051.109131 
	C1257.504639,1091.832397 1257.504639,1132.057129 1257.504639,1172.549316 
	C1248.695679,1172.549316 1240.448242,1172.549316 1231.680908,1172.549316 
	C1231.680908,1132.259644 1231.680908,1092.004639 1231.680908,1051.329468 
	C1223.903320,1051.329468 1216.624634,1051.329468 1209.013428,1051.329468 
	C1209.013428,1043.691528 1209.013428,1036.470093 1209.013428,1028.905518 
	C1216.388062,1028.905518 1223.683594,1028.905518 1231.636597,1028.905518 
	C1231.636597,1023.154785 1231.653809,1017.729858 1231.633179,1012.305054 
	C1231.581543,998.680847 1234.014648,985.755249 1242.787476,974.806091 
	C1255.892090,958.450317 1273.703491,954.773865 1293.149658,957.601990 
	C1302.211060,958.919800 1310.946167,962.482178 1320.353760,965.177490 
	C1317.421997,973.461487 1314.911011,980.556824 1312.787598,986.556458 
	C1303.367065,984.248474 1294.545898,980.847595 1285.514893,980.145325 
	C1269.149414,978.872498 1259.121338,988.238770 1257.851440,1004.737061 
	C1257.253662,1012.504089 1257.748901,1020.355286 1257.748901,1028.920044 
	C1270.225708,1028.920044 1282.799438,1028.920044 1295.854370,1028.920044 
z"/>
<path fill="#FBFCFC" opacity="1.000000" stroke="none" 
	d="
M746.652893,984.000244 
	C746.653137,1029.657104 746.617432,1074.814087 746.704407,1119.970703 
	C746.713989,1124.938354 746.900757,1130.014648 747.912903,1134.850586 
	C750.721680,1148.270020 760.460083,1155.186890 774.169739,1153.588379 
	C779.579529,1152.957764 784.884094,1151.424316 790.918274,1150.158936 
	C792.857483,1156.431763 794.936768,1163.157471 797.000732,1169.833862 
	C782.807190,1177.805542 752.516479,1179.593140 736.954407,1166.922241 
	C726.099304,1158.083984 721.623657,1146.127686 721.102173,1132.688232 
	C720.566284,1118.877197 720.827332,1105.033569 720.819458,1091.204224 
	C720.795776,1049.546631 720.810974,1007.888977 720.810974,966.231384 
	C720.810974,964.411560 720.810974,962.591736 720.810974,960.443542 
	C729.310364,960.443542 737.541504,960.443542 746.652893,960.443542 
	C746.652893,968.026184 746.652893,975.763184 746.652893,984.000244 
z"/>
<path fill="#FCFCFD" opacity="1.000000" stroke="none" 
	d="
M1156.950439,1074.000000 
	C1156.950439,1057.010010 1156.950439,1040.520020 1156.950439,1023.677612 
	C1165.561768,1023.677612 1173.940063,1023.677612 1182.588867,1023.677612 
	C1182.588867,1073.268555 1182.588867,1122.688110 1182.588867,1172.467163 
	C1174.176147,1172.467163 1165.800415,1172.467163 1156.950439,1172.467163 
	C1156.950439,1139.735229 1156.950439,1107.117676 1156.950439,1074.000000 
z"/>
<path fill="#FCFCFD" opacity="1.000000" stroke="none" 
	d="
M1176.766357,963.001709 
	C1183.900757,966.600220 1187.818970,971.991943 1187.929443,979.745605 
	C1188.080200,990.329224 1180.746460,997.775391 1170.229248,997.880432 
	C1160.119751,997.981323 1151.844116,989.729187 1151.838501,979.541870 
	C1151.832520,968.597778 1158.629883,961.713562 1169.567871,961.804077 
	C1171.848633,961.822937 1174.123779,962.510010 1176.766357,963.001709 
z"/>
<path fill="#112F45" opacity="1.000000" stroke="none" 
	d="
M1128.930664,389.016632 
	C1129.093750,402.524506 1128.873779,415.480865 1125.231812,428.147034 
	C1116.093750,459.927368 1090.162720,481.307617 1057.166748,483.970001 
	C1050.533813,484.505157 1043.861328,484.776001 1037.206787,484.783600 
	C981.882324,484.846680 926.557678,484.819366 871.233154,484.819366 
	C869.267395,484.819366 867.301636,484.819366 865.039795,484.819366 
	C865.039795,518.274170 865.039795,551.338257 865.039795,584.963440 
	C867.050293,584.963440 868.998596,584.963440 870.946899,584.963440 
	C942.935486,584.963440 1014.924072,585.003052 1086.912598,584.929260 
	C1100.889648,584.914917 1114.545654,586.581055 1127.375610,592.293152 
	C1154.384521,604.317871 1169.044556,625.821777 1172.789185,654.588806 
	C1174.349243,666.572327 1174.026611,678.863586 1173.792969,691.000244 
	C1173.561279,703.029297 1167.881836,708.467834 1156.041748,709.452942 
	C1154.052368,709.618469 1152.047607,709.659546 1150.050049,709.659729 
	C1043.400391,709.669495 936.750671,709.668579 830.100952,709.668823 
	C828.624207,709.668823 827.147461,709.668823 825.300415,709.668823 
	C825.300415,593.130249 825.300415,476.919678 825.300415,360.035248 
	C826.910278,360.035248 828.671326,360.035217 830.432373,360.035217 
	C921.751160,360.035217 1013.070007,360.035095 1104.388794,360.036560 
	C1105.721802,360.036591 1107.055054,360.040710 1108.387695,360.070038 
	C1121.859619,360.366547 1128.487183,366.965118 1128.889771,380.521973 
	C1128.968994,383.185974 1128.920410,385.853729 1128.930664,389.016632 
z"/>
<path fill="#123046" opacity="1.000000" stroke="none" 
	d="
M637.993164,1085.882080 
	C655.008789,1094.667358 661.856262,1109.394531 657.070923,1126.103271 
	C654.566162,1134.848999 649.053711,1141.444702 640.914734,1144.695923 
	C632.681213,1147.984863 623.869568,1150.895630 615.122620,1151.587036 
	C600.911926,1152.710327 586.547485,1151.889771 571.809692,1151.889771 
	C571.809692,1127.190063 571.809692,1103.815430 571.809692,1079.751343 
	C574.002563,1079.751343 576.266052,1079.665161 578.521301,1079.765259 
	C594.460266,1080.472290 610.411560,1081.012207 626.325134,1082.099731 
	C630.163086,1082.362061 633.874329,1084.478271 637.993164,1085.882080 
z"/>
<path fill="#123046" opacity="1.000000" stroke="none" 
	d="
M643.605652,1003.380249 
	C656.485413,1017.089478 655.207825,1035.997314 640.845581,1047.527954 
	C633.916199,1053.091309 625.878113,1056.534058 617.128845,1057.109985 
	C602.078186,1058.101074 586.974548,1058.288940 571.619141,1058.823242 
	C571.619141,1036.381104 571.619141,1014.956726 571.619141,993.009644 
	C589.911011,991.807434 608.195862,989.480042 626.135559,994.500000 
	C632.202026,996.197510 637.625488,1000.192871 643.605652,1003.380249 
z"/>
<path fill="#123046" opacity="1.000000" stroke="none" 
	d="
M1079.821899,1050.137207 
	C1085.161621,1052.377197 1086.893066,1055.760986 1086.782715,1061.482544 
	C1086.355591,1083.623413 1086.537842,1105.777954 1086.683350,1127.926025 
	C1086.706177,1131.403931 1085.670044,1133.895264 1083.140503,1136.192871 
	C1070.440796,1147.727661 1055.920410,1153.111938 1039.070190,1147.861084 
	C1021.463135,1142.374512 1011.608215,1129.230713 1007.117981,1111.906982 
	C1004.230225,1100.765991 1004.536987,1089.421387 1007.379639,1078.284668 
	C1014.938599,1048.670532 1043.952271,1034.530518 1072.307373,1046.524292 
	C1074.750854,1047.557861 1077.098022,1048.819214 1079.821899,1050.137207 
z"/>
<path fill="#112F45" opacity="1.000000" stroke="none" 
	d="
M908.478516,1053.497070 
	C933.876160,1075.644897 931.711365,1113.695190 918.473450,1133.655762 
	C903.397095,1156.388306 870.645752,1160.081665 850.378540,1141.335083 
	C829.450623,1121.977417 826.091125,1083.980835 842.545776,1060.620972 
	C856.553223,1040.735474 889.909912,1036.699829 908.478516,1053.497070 
z"/>
</svg>